<svg width="6" height="5" viewBox="0 0 6 5" fill="none" xmlns="http://www.w3.org/2000/svg">
<path d="M0.895027 -3.53164e-05L5.10503 -3.56845e-05C5.27123 -0.000276502 5.43411 0.046557 5.5748 0.135044C5.7155 0.22353 5.82826 0.350052 5.90003 0.499964C5.98404 0.677835 6.0164 0.87573 5.99342 1.0711C5.97043 1.26647 5.89303 1.45145 5.77003 1.60496L3.66503 4.15496C3.58242 4.25028 3.48029 4.32672 3.36555 4.37911C3.25081 4.4315 3.12616 4.45862 3.00003 4.45862C2.8739 4.45862 2.74924 4.4315 2.6345 4.37911C2.51977 4.32672 2.41763 4.25028 2.33503 4.15496L0.230026 1.60496C0.107023 1.45145 0.0296189 1.26647 0.00663442 1.0711C-0.0163501 0.875731 0.0160104 0.677836 0.100027 0.499965C0.171797 0.350052 0.284556 0.223531 0.42525 0.135044C0.565943 0.0465574 0.72882 -0.000276105 0.895027 -3.53164e-05Z" fill="#989898"/>
</svg>
