<svg width="187" height="33" viewBox="0 0 187 33" fill="none" xmlns="http://www.w3.org/2000/svg">
<mask id="mask0_7456_25837" style="mask-type:luminance" maskUnits="userSpaceOnUse" x="0" y="0" width="187" height="33">
<path d="M186.639 0H0V33H186.639V0Z" fill="white"/>
</mask>
<g mask="url(#mask0_7456_25837)">
<mask id="mask1_7456_25837" style="mask-type:luminance" maskUnits="userSpaceOnUse" x="0" y="0" width="187" height="34">
<path d="M186.601 0H0V33.0002H186.601V0Z" fill="white"/>
</mask>
<g mask="url(#mask1_7456_25837)">
<path d="M44.0422 21.4369C43.2375 21.46 42.4367 21.3123 41.689 21.0033C40.9417 20.6946 40.2632 20.2309 39.6956 19.641C39.128 19.0514 38.6831 18.3476 38.3888 17.5737C38.0944 16.7998 37.9566 15.9718 37.9835 15.1407C37.957 14.3099 38.0951 13.4823 38.3899 12.7088C38.6847 11.9352 39.1295 11.2322 39.6968 10.6428C40.2644 10.0534 40.9428 9.59012 41.6902 9.28145C42.4375 8.97286 43.2379 8.8254 44.0422 8.8481C44.9242 8.84021 45.797 9.03004 46.6005 9.40455C47.3728 9.76263 48.0509 10.3056 48.5789 10.9885C49.1196 11.6839 49.4971 12.499 49.6829 13.37H47.7311C47.4814 12.597 46.9946 11.929 46.3446 11.4671C45.6677 10.9997 44.8676 10.7592 44.0537 10.7783C43.5092 10.7621 42.9678 10.8635 42.4636 11.0759C41.9595 11.2883 41.5039 11.6071 41.126 12.0118C40.7343 12.4265 40.4275 12.9181 40.2236 13.4577C40.0196 13.997 39.923 14.5735 39.9392 15.1523C39.9207 15.7251 40.0142 16.2957 40.2136 16.8305C40.4129 17.3651 40.7142 17.8535 41.0994 18.2656C41.7906 18.961 42.6922 19.3889 43.6535 19.4774C44.6144 19.5663 45.5753 19.31 46.3746 18.752C47.0423 18.2568 47.5318 17.5464 47.765 16.7324H49.7357C49.4809 18.0797 48.7721 19.2904 47.735 20.1489C46.6875 21.0106 45.381 21.4662 44.0422 21.4369Z" fill="white"/>
<path d="M51.6191 21.2276V8.46722H53.5029V21.2276H51.6191Z" fill="white"/>
<path d="M63.7418 11.8419H65.1849V21.228H63.6775L63.4932 20.0801C63.0668 20.5307 62.5546 20.8855 61.9893 21.1218C61.424 21.3581 60.8171 21.4712 60.2076 21.4539C59.5788 21.4724 58.9534 21.3565 58.37 21.1141C57.7866 20.8717 57.2575 20.508 56.8165 20.0451C56.3724 19.5867 56.023 19.0399 55.7898 18.438C55.5566 17.8358 55.4442 17.1911 55.46 16.5429C55.4427 15.8936 55.5539 15.2475 55.7863 14.644C56.0188 14.0405 56.3678 13.4922 56.8119 13.0324C57.256 12.5725 57.7859 12.2109 58.3697 11.9694C58.9534 11.7281 59.5788 11.6118 60.2076 11.6278C60.8237 11.6093 61.4367 11.7237 62.0074 11.9636C62.5785 12.2035 63.0945 12.5636 63.5232 13.021L63.7418 11.8419ZM58.2107 18.734C58.4897 19.0234 58.8234 19.2504 59.1905 19.4016C59.558 19.5529 59.9517 19.6248 60.3469 19.6133C60.7402 19.626 61.1315 19.5544 61.4967 19.4028C61.8619 19.2516 62.1925 19.0237 62.4684 18.734C62.7443 18.4434 62.9606 18.0979 63.1038 17.7188C63.2469 17.3394 63.3139 16.934 63.3008 16.5272C63.3143 16.121 63.2469 15.7161 63.1038 15.3375C62.9606 14.9588 62.7443 14.6143 62.4684 14.3246C62.1902 14.0366 61.8577 13.8109 61.4913 13.6615C61.125 13.5122 60.7329 13.4425 60.3396 13.4568C59.8127 13.4483 59.2932 13.5825 58.8322 13.846C58.3843 14.1047 58.0145 14.4857 57.762 14.9473C57.5061 15.4298 57.376 15.9731 57.3853 16.5234C57.3687 16.9306 57.4338 17.3367 57.5754 17.7169C57.7174 18.0975 57.9337 18.4434 58.2107 18.734Z" fill="white"/>
<path d="M72.2079 11.7873H73.0144V13.6202H72.0385C70.4835 13.6202 69.7061 14.4867 69.7061 16.2196V21.228H67.822V11.8417H69.0842L69.4048 13.1259C69.7288 12.6812 70.1544 12.3264 70.6435 12.0928C71.1327 11.8592 71.6699 11.7542 72.2079 11.7873Z" fill="white"/>
<path d="M74.4468 10.3782V8.39734H76.3836V10.3782H74.4468ZM74.4806 21.2276V11.8414H76.3647V21.2276H74.4806Z" fill="white"/>
<path d="M83.0671 19.4563H84.0919V21.2111H82.7127C82.1174 21.2315 81.5271 21.0976 80.9948 20.822C80.5103 20.5631 80.1155 20.1551 79.8642 19.6545C79.6091 19.108 79.4848 18.5062 79.5025 17.8997V13.4905H77.8708V13.1247L81.036 9.64954H81.3566V11.8405H84.0507V13.4905H81.3716V17.7323C81.3573 17.9666 81.3881 18.2014 81.4643 18.4227C81.5401 18.6443 81.6587 18.8475 81.8122 19.0203C81.9827 19.1754 82.1816 19.2939 82.3971 19.3686C82.6126 19.4436 82.8405 19.4732 83.0671 19.4563Z" fill="white"/>
<path d="M92.3924 11.8433H94.3927L90.2181 21.4047C89.8595 22.344 89.3126 23.1941 88.6123 23.8991C87.9904 24.3955 87.2165 24.6453 86.4311 24.6037H85.5083V22.8639H86.2841C86.7493 22.904 87.213 22.7747 87.5955 22.4984C88.0004 22.065 88.3159 21.5513 88.5218 20.9883L88.7258 20.5527L84.7771 11.8433H86.8117L89.6755 18.3965L92.3924 11.8433Z" fill="white"/>
<path d="M104.798 15.055H111.093C111.133 16.7591 110.522 18.4107 109.394 19.6548C108.849 20.2455 108.189 20.7116 107.458 21.0213C106.727 21.3311 105.941 21.4781 105.151 21.4527C104.35 21.4777 103.551 21.3315 102.808 21.0233C102.063 20.7154 101.389 20.2521 100.826 19.6625C100.256 19.0695 99.8081 18.3626 99.5111 17.5853C99.214 16.8079 99.0731 15.9762 99.0962 15.1407C99.072 14.3098 99.2109 13.4823 99.5053 12.7083C99.7993 11.9345 100.241 11.2302 100.807 10.6382C101.363 10.0511 102.031 9.58904 102.768 9.28095C103.505 8.97298 104.296 8.82555 105.091 8.84806C106.459 8.8224 107.797 9.26879 108.893 10.1166C109.941 10.8951 110.67 12.052 110.931 13.3583H108.927C108.682 12.5862 108.185 11.9258 107.522 11.4904C106.819 11.0165 105.995 10.7711 105.155 10.7861C104.419 10.773 103.693 10.9624 103.053 11.3348C102.435 11.7 101.934 12.2402 101.606 12.8914C101.248 13.5897 101.068 14.3703 101.082 15.1601C101.059 15.7389 101.148 16.3166 101.342 16.8602C101.536 17.4036 101.832 17.9023 102.213 18.3276C102.593 18.732 103.054 19.0487 103.56 19.2581C104.069 19.467 104.612 19.5636 105.159 19.5421C106.033 19.559 106.892 19.295 107.615 18.7871C108.297 18.3203 108.789 17.611 108.998 16.7945H104.798V15.055Z" fill="white"/>
<path d="M113.117 21.2276V8.46722H115.002V21.2276H113.117Z" fill="white"/>
<path d="M125.31 20.0566C124.361 20.9548 123.121 21.4531 121.834 21.4531C120.547 21.4531 119.306 20.9548 118.357 20.0566C117.905 19.6033 117.547 19.0584 117.309 18.4554C117.07 17.8527 116.955 17.2053 116.971 16.5543C116.957 15.6632 117.174 14.7843 117.6 14.0092C118.014 13.2634 118.621 12.6516 119.353 12.2425C120.118 11.826 120.97 11.6084 121.835 11.6084C122.701 11.6084 123.553 11.826 124.318 12.2425C125.05 12.6507 125.656 13.2628 126.067 14.0092C126.492 14.7764 126.71 15.647 126.7 16.5309C126.718 17.1861 126.603 17.8381 126.364 18.445C126.125 19.0522 125.766 19.601 125.31 20.0566ZM121.835 19.6129C122.369 19.6233 122.896 19.4894 123.365 19.2239C123.809 18.9687 124.174 18.5897 124.42 18.1302C124.676 17.6422 124.806 17.0939 124.797 16.5387C124.81 16.1307 124.743 15.7242 124.6 15.3436C124.457 14.963 124.24 14.6163 123.964 14.3244C123.387 13.7666 122.626 13.4563 121.835 13.4563C121.045 13.4563 120.283 13.7666 119.707 14.3244C119.43 14.6154 119.214 14.9613 119.07 15.3413C118.927 15.7212 118.86 16.1273 118.873 16.5349C118.86 16.9418 118.927 17.3471 119.07 17.7265C119.213 18.106 119.43 18.4511 119.707 18.7413C119.984 19.0303 120.316 19.257 120.683 19.4067C121.049 19.5567 121.441 19.6272 121.835 19.6129Z" fill="white"/>
<path d="M133.549 11.6117C134.178 11.5917 134.803 11.7058 135.387 11.9469C135.97 12.1879 136.499 12.5507 136.94 13.0126C137.383 13.4756 137.731 14.0263 137.96 14.6316C138.192 15.237 138.3 15.8843 138.282 16.5345C138.299 17.1812 138.188 17.8246 137.959 18.4265C137.729 19.0283 137.384 19.576 136.944 20.037C136.503 20.4976 135.973 20.8593 135.39 21.0999C134.806 21.34 134.181 21.4539 133.554 21.4339C132.962 21.4485 132.374 21.3427 131.823 21.1222C131.271 20.9021 130.766 20.5715 130.339 20.1497L130.106 21.2084H128.689V8.46741H130.572V12.7092C131.405 11.9854 132.461 11.5959 133.549 11.6117ZM131.27 18.7255C131.841 19.2923 132.603 19.609 133.395 19.609C134.187 19.609 134.949 19.2923 135.52 18.7255C135.798 18.4373 136.017 18.0936 136.161 17.7157C136.306 17.3378 136.375 16.9332 136.364 16.5268C136.375 16.1202 136.306 15.7157 136.161 15.3377C136.017 14.9597 135.798 14.6162 135.52 14.328C135.242 14.0378 134.908 13.8103 134.541 13.6602C134.172 13.5102 133.779 13.4408 133.383 13.4563C132.857 13.4478 132.337 13.5819 131.877 13.8455C131.429 14.1041 131.059 14.4852 130.807 14.9468C130.55 15.4294 130.42 15.9726 130.43 16.5229C130.418 16.9296 130.487 17.3347 130.631 17.7134C130.775 18.0917 130.992 18.4361 131.27 18.7255Z" fill="white"/>
<path d="M147.875 11.8419H149.325V21.228H147.818L147.63 20.0801C147.205 20.5311 146.693 20.8859 146.129 21.1222C145.564 21.3588 144.958 21.4716 144.348 21.4539C143.72 21.4724 143.094 21.3565 142.51 21.1141C141.928 20.8717 141.399 20.508 140.957 20.0451C140.513 19.5867 140.163 19.0399 139.931 18.438C139.697 17.8358 139.585 17.1911 139.601 16.5429C139.584 15.8936 139.694 15.2475 139.927 14.644C140.16 14.0405 140.509 13.4922 140.952 13.0324C141.397 12.5725 141.926 12.2109 142.51 11.9694C143.094 11.7281 143.72 11.6118 144.348 11.6278C144.965 11.6093 145.577 11.7237 146.148 11.9636C146.719 12.2035 147.235 12.5636 147.664 13.021L147.875 11.8419ZM142.348 18.734C142.627 19.0234 142.96 19.2504 143.328 19.4016C143.695 19.5529 144.088 19.6248 144.485 19.6133C144.877 19.626 145.269 19.5544 145.633 19.4028C145.999 19.2516 146.33 19.0237 146.605 18.734C146.881 18.4434 147.098 18.0979 147.24 17.7188C147.384 17.3394 147.451 16.934 147.438 16.5272C147.451 16.121 147.384 15.7161 147.24 15.3375C147.098 14.9588 146.881 14.6143 146.605 14.3246C146.327 14.0366 145.995 13.8109 145.628 13.6615C145.262 13.5122 144.869 13.4425 144.476 13.4568C143.949 13.4483 143.43 13.5825 142.969 13.846C142.521 14.1038 142.15 14.485 141.899 14.9473C141.641 15.4289 141.511 15.9728 141.522 16.5234C141.506 16.9306 141.57 17.3367 141.712 17.7169C141.854 18.0975 142.07 18.4434 142.348 18.734Z" fill="white"/>
<path d="M151.986 21.2276V8.46741H153.85V21.2276H151.986Z" fill="white"/>
<path d="M162.113 21.2276V8.46741H163.978V21.2276H162.113Z" fill="white"/>
<path d="M171.641 11.629C172.114 11.6076 172.584 11.6947 173.02 11.8838C173.455 12.0729 173.844 12.3593 174.159 12.7226C174.801 13.5167 175.134 14.5294 175.094 15.5634V21.2257H173.21V15.9525C173.263 15.2632 173.085 14.5758 172.705 14.0068C172.513 13.7781 172.273 13.5985 172.003 13.4823C171.733 13.3661 171.441 13.3166 171.148 13.3374C170.817 13.3304 170.489 13.3985 170.186 13.5371C169.883 13.6756 169.614 13.8811 169.396 14.1392C168.924 14.7084 168.677 15.4409 168.706 16.1899V21.2257H166.823V11.8392H168.119L168.495 13.1429C168.845 12.6634 169.305 12.281 169.834 12.0299C170.399 11.7573 171.017 11.6203 171.641 11.629Z" fill="white"/>
<path d="M181.724 21.4558C181.096 21.4666 180.471 21.3469 179.887 21.103C179.304 20.8594 178.775 20.4969 178.33 20.037C177.886 19.5771 177.535 19.0295 177.3 18.4269C177.064 17.8243 176.95 17.1786 176.961 16.529C176.946 15.8793 177.06 15.2333 177.296 14.6308C177.532 14.0284 177.885 13.4824 178.334 13.0266C179.168 12.2028 180.257 11.7081 181.41 11.6291C182.562 11.5502 183.703 11.8919 184.637 12.5946C185.451 13.232 186.019 14.148 186.238 15.1787H184.385C184.162 14.6586 183.793 14.2195 183.326 13.9178C182.845 13.6104 182.29 13.4511 181.724 13.4586C181.218 13.4547 180.719 13.5922 180.283 13.8565C179.846 14.121 179.486 14.5025 179.242 14.9607C178.987 15.4438 178.858 15.9867 178.864 16.5368C178.855 16.9402 178.922 17.3417 179.064 17.7177C179.206 18.094 179.418 18.4373 179.69 18.7278C179.949 19.0149 180.265 19.2423 180.615 19.3951C180.966 19.5483 181.344 19.6229 181.724 19.6148C182.293 19.6279 182.853 19.4617 183.327 19.1384C183.803 18.8152 184.171 18.3503 184.385 17.8054H186.268C186.041 18.8575 185.465 19.7946 184.641 20.4557C183.81 21.1264 182.779 21.4797 181.724 21.4558Z" fill="white"/>
<path d="M12.2004 -0.000721304C10.085 -0.00326114 7.9904 0.429396 6.03865 1.27189C4.0869 2.11442 2.31714 3.34998 0.832719 4.90647C3.23914 3.00483 6.11654 2.05139 9.46493 2.04619C11.5052 2.02645 13.5251 2.466 15.3843 3.33427C17.1716 4.16699 18.7428 5.42444 19.9696 7.00399C21.2196 8.61378 22.0939 10.4993 22.5245 12.5144H18.0028C17.4183 10.7217 16.2833 9.17501 14.7702 8.1092C13.2101 7.03581 11.3692 6.48171 9.49506 6.52142C8.23422 6.48267 6.97947 6.71676 5.81145 7.20868C4.6434 7.7006 3.58794 8.4395 2.71289 9.37777C0.904297 11.2768 0 13.6935 0 16.6277C0 19.5617 0.895484 21.9757 2.68649 23.8698C3.56547 24.8015 4.62204 25.5346 5.78948 26.0229C6.95688 26.5113 8.20971 26.7441 9.46866 26.7068C11.4045 26.7495 13.3024 26.1491 14.8831 24.9943C16.4197 23.8471 17.5426 22.2043 18.0748 20.3245H22.6261C22.0296 23.4358 20.3883 26.2296 17.9917 28.2126C15.5711 30.1967 12.5544 31.2431 9.46493 31.1703C6.73445 31.2296 4.04677 30.4626 1.73325 28.9637C3.68176 30.7093 6.01052 31.9415 8.52049 32.5553C11.0304 33.1691 13.647 33.146 16.1465 32.4883C18.6459 31.8303 20.954 30.5573 22.8735 28.7775C24.793 26.9981 26.2665 24.7646 27.1685 22.269C28.0706 19.773 28.3738 17.0888 28.0529 14.4455C27.7315 11.8022 26.7956 9.27857 25.3248 7.09015C23.8541 4.90174 21.8918 3.11373 19.6064 1.87887C17.3209 0.644051 14.7798 -0.000875234 12.2004 -0.000721304Z" fill="white"/>
</g>
</g>
</svg>
