<svg width="16" height="17" viewBox="0 0 16 17" fill="none" xmlns="http://www.w3.org/2000/svg">
<g clip-path="url(#clip0_7451_23760)">
<path d="M1.06665 0.5C0.48 0.5 0 0.98 0 1.56665V3.16665H5.83465V0.5H1.06665ZM1.31735 2.36665C1.024 2.36665 0.784 2.12665 0.784 1.8333C0.784 1.53995 1.024 1.29995 1.31735 1.29995C1.6107 1.29995 1.8507 1.53995 1.8507 1.8333C1.8507 2.12665 1.6107 2.36665 1.31735 2.36665ZM2.91735 2.36665C2.624 2.36665 2.384 2.12665 2.384 1.8333C2.384 1.53995 2.624 1.29995 2.91735 1.29995C3.2107 1.29995 3.4507 1.53995 3.4507 1.8333C3.4507 2.12665 3.2107 2.36665 2.91735 2.36665ZM4.51735 2.36665C4.224 2.36665 3.984 2.12665 3.984 1.8333C3.984 1.53995 4.224 1.29995 4.51735 1.29995C4.8107 1.29995 5.0507 1.53995 5.0507 1.8333C5.0507 2.12665 4.8107 2.36665 4.51735 2.36665Z" fill="white"/>
<path d="M16 1.56665V3.16665H6.90137V0.5H14.9334C15.5201 0.5 16 0.98 16 1.56665Z" fill="white"/>
<path d="M5.86675 10.3666C5.86675 10.008 5.8812 9.65074 5.90755 9.29999H3.87385C3.7854 9.64164 3.7334 9.99779 3.7334 10.3666C3.7334 10.5476 3.74845 10.7248 3.77045 10.9H5.8772C5.8707 10.723 5.86675 10.5452 5.86675 10.3666Z" fill="white"/>
<path d="M12.2299 10.9C12.2518 10.7249 12.2669 10.5477 12.2669 10.3667C12.2669 9.9978 12.2149 9.64165 12.1265 9.30005H10.0928C10.1191 9.65085 10.1336 10.0081 10.1336 10.3667C10.1336 10.5452 10.1296 10.723 10.1231 10.9H12.2299Z" fill="white"/>
<path d="M8.89078 8.23333C8.64123 6.82868 8.19292 6.09998 8.00007 6.09998C7.80722 6.09998 7.35888 6.82868 7.10938 8.23333H8.89078Z" fill="white"/>
<path d="M7.0293 11.9667C7.24795 13.7201 7.78375 14.6333 7.9997 14.6333C8.21565 14.6333 8.75145 13.72 8.9701 11.9667H7.0293Z" fill="white"/>
<path d="M9.0249 9.29999H6.9751C6.94905 9.63139 6.93335 9.98549 6.93335 10.3666C6.93335 10.5504 6.93715 10.7277 6.9436 10.9H9.05645C9.0629 10.7277 9.0667 10.5504 9.0667 10.3666C9.0667 9.98549 9.05095 9.63139 9.0249 9.29999Z" fill="white"/>
<path d="M5.96035 11.9667H4.04785C4.5116 13.108 5.455 14.0023 6.6271 14.4024C6.2931 13.7764 6.0735 12.9176 5.96035 11.9667Z" fill="white"/>
<path d="M0 4.23334V15.4333C0 16.02 0.48 16.5 1.06665 16.5H14.9333C15.5201 16.5 16 16.02 16 15.4333V4.23334H0ZM8 15.7C5.0591 15.7 2.66665 13.3075 2.66665 10.3666C2.66665 7.42574 5.0591 5.03329 8 5.03329C10.9409 5.03329 13.3334 7.42574 13.3334 10.3666C13.3334 10.8007 13.2755 11.2207 13.1772 11.6249C13.175 11.6307 13.175 11.6373 13.1726 11.643C12.5983 13.9684 10.5003 15.7 8 15.7Z" fill="white"/>
<path d="M9.9647 8.23339H11.6891C11.1789 7.35459 10.3655 6.67539 9.3916 6.33789C9.65315 6.84844 9.843 7.50389 9.9647 8.23339Z" fill="white"/>
<path d="M10.0398 11.9667C9.92665 12.9176 9.707 13.7764 9.37305 14.4024C10.5451 14.0023 11.4885 13.108 11.9523 11.9667H10.0398Z" fill="white"/>
<path d="M6.0349 8.23333C6.1566 7.50383 6.34645 6.84838 6.608 6.33783C5.63415 6.67538 4.82075 7.35458 4.31055 8.23333H6.0349Z" fill="white"/>
</g>
<defs>
<clipPath id="clip0_7451_23760">
<rect width="16" height="16" fill="white" transform="translate(0 0.5)"/>
</clipPath>
</defs>
</svg>
